# xmcd
# 
# Track frame offsets:
#     150
#     13175
#     27102
#     40115
#     54417
#     67587
#     83827
#     95562
#     107217
#     117050
#     127122
#     139685
#     153912
#     164445
#     177012
#     188212
#     208987
#     226130
#     241755
#     262655
# 
# Disc length: 3679
# 
# Revision: 4
# Processed by: cddbd v1.5.2PL0 Copyright (c) Steve Scherf et al.
# Submitted via: fre:ac v1.0.27
# 
DISCID=fc0e5d14
DTITLE=Various Artist - Living The Blues - LADIES SING THE BLUES
DYEAR=2000
DGENRE=Blues
TTITLE0=Hand Off
TTITLE1=Little Red Rooster
TTITLE2=Me And My Chauffeur Blues
TTITLE3=Long John Blues
TTITLE4=(Mama) He Treats Your Daughter Mean
TTITLE5=I'm Gettin' 'long Alright
TTITLE6=I'm A Woman
TTITLE7=I Still Love You
TTITLE8=Miss You So
TTITLE9=I Feel So Low
TTITLE10=Today I Sing The Blues
TTITLE11=I Just Want To Make Love To You
TTITLE12=Stop These Teardrops
TTITLE13=The Hunter
TTITLE14=Just Like A Fish
TTITLE15=I'm A Woman
TTITLE16=My Handy Man Ain't Handy No More
TTITLE17=Never Make Your Move Too Soon
TTITLE18=Your Husband Is Cheating On Us
TTITLE19=I Needs To Be Be'd With
EXTD=YEAR: 2000
EXTT0=
EXTT1=
EXTT2=
EXTT3=
EXTT4=
EXTT5=
EXTT6=
EXTT7=
EXTT8=
EXTT9=
EXTT10=
EXTT11=
EXTT12=
EXTT13=
EXTT14=
EXTT15=
EXTT16=
EXTT17=
EXTT18=
EXTT19=
PLAYORDER=
